<svg width="24" height="24" viewBox="0 0 24 24" fill="none" xmlns="http://www.w3.org/2000/svg">
<g clip-path="url(#clip0_43_981)">
<path d="M16.8001 7.70001L16.8002 7.70001C17.081 7.69996 17.3511 7.80724 17.5553 7.99989C17.6824 8.11984 17.778 8.26723 17.836 8.42905L12.0001 11.3466L6.16428 8.42905C6.22225 8.26723 6.31785 8.11984 6.445 7.99989C6.64919 7.80724 6.91932 7.69996 7.20005 7.70001H7.20014L16.8001 7.70001Z" fill="white" stroke="white"/>
<path d="M18.4001 10.4944L12.0001 13.6944L5.6001 10.4944V15.2C5.6001 15.6243 5.76867 16.0313 6.06873 16.3314C6.36878 16.6314 6.77575 16.8 7.2001 16.8H16.8001C17.2244 16.8 17.6314 16.6314 17.9315 16.3314C18.2315 16.0313 18.4001 15.6243 18.4001 15.2V10.4944Z" fill="white"/>
</g>
<defs>
<clipPath id="clip0_43_981">
<rect width="24" height="24" fill="white"/>
</clipPath>
</defs>
</svg>
