<svg width="24" height="24" viewBox="0 0 24 24" fill="none" xmlns="http://www.w3.org/2000/svg">
<path fill-rule="evenodd" clip-rule="evenodd" d="M4 9.20833C4 8.47195 4.59695 7.875 5.33333 7.875H18.6667C19.403 7.875 20 8.47195 20 9.20833V18.5417C20 19.278 19.403 19.875 18.6667 19.875H5.33333C4.59695 19.875 4 19.278 4 18.5417V9.20833ZM18.6667 9.20833H5.33333V18.5417H18.6667V9.20833Z" fill="white"/>
<path fill-rule="evenodd" clip-rule="evenodd" d="M12.0002 3.20833C11.3813 3.20833 10.7878 3.45417 10.3502 3.89175C9.91266 4.32934 9.66683 4.92283 9.66683 5.54167V8.54167C9.66683 8.90986 9.36835 9.20833 9.00016 9.20833C8.63197 9.20833 8.3335 8.90986 8.3335 8.54167V5.54167C8.3335 4.56921 8.7198 3.63657 9.40744 2.94894C10.0951 2.26131 11.0277 1.875 12.0002 1.875C12.9726 1.875 13.9053 2.26131 14.5929 2.94894C15.2805 3.63657 15.6668 4.56921 15.6668 5.54167C15.6668 5.90986 15.3684 6.20833 15.0002 6.20833C14.632 6.20833 14.3335 5.90986 14.3335 5.54167C14.3335 4.92283 14.0877 4.32934 13.6501 3.89175C13.2125 3.45417 12.619 3.20833 12.0002 3.20833Z" fill="white"/>
</svg>
