<svg width="25" height="24" viewBox="0 0 25 24" fill="none" xmlns="http://www.w3.org/2000/svg">
<path fill-rule="evenodd" clip-rule="evenodd" d="M4.84122 2.35238C6.18594 1.06145 8.40991 1.21318 9.55093 2.6737L11.445 5.09806C12.378 6.29242 12.2544 7.96371 11.1547 9.01938L9.75825 10.36C9.89358 10.6982 10.3391 11.4402 11.6957 12.7426C13.0524 14.045 13.8254 14.4727 14.1777 14.6026L15.5741 13.2621C16.6738 12.2064 18.4147 12.0876 19.6588 12.9834L22.1842 14.8017C23.7055 15.8971 23.8636 18.0321 22.5189 19.323C22.0817 19.7427 22.0077 19.8137 21.2781 20.5141C20.5346 21.2279 18.9558 21.8951 17.3573 21.9618C14.8559 22.0662 11.4583 21 7.27633 16.9853C3.09438 12.9706 1.98369 9.70879 2.09245 7.30746C2.15295 5.97166 2.59533 4.50453 3.6063 3.54907C4.33005 2.8431 4.42418 2.75274 4.84122 2.35238ZM4.17381 7.39434C4.09843 9.05888 4.82917 11.8076 8.74948 15.5711C12.6698 19.3346 15.5329 20.0361 17.2669 19.9637C18.8854 19.8961 19.7537 19.1453 19.805 19.0999L21.0457 17.9088C21.494 17.4785 21.4414 16.7668 20.9342 16.4017L18.4088 14.5834C17.9941 14.2848 17.4138 14.3244 17.0472 14.6763C16.495 15.2065 16.1179 15.5737 15.38 16.2795C13.8471 17.7456 11.223 15.1172 10.2226 14.1569C9.30326 13.2743 6.50153 10.6752 8.01001 9.20984C8.013 9.20696 8.4193 8.81691 9.68153 7.60517C10.0481 7.25328 10.0893 6.69618 9.7783 6.29806L7.88426 3.8737C7.50392 3.38686 6.76259 3.33628 6.31436 3.76659C5.9018 4.16264 5.4349 4.61086 5.07487 4.95889C4.33386 5.67518 4.21347 6.51874 4.17381 7.39434Z" fill="#242D2F"/>
</svg>
