<svg width="28" height="28" viewBox="0 0 28 28" fill="none" xmlns="http://www.w3.org/2000/svg">
<g clip-path="url(#clip0_43_1184)">
<path d="M27.7211 8.40013C27.7211 8.40013 27.4477 6.46966 26.6055 5.622C25.5391 4.50638 24.3469 4.50091 23.8 4.43528C19.8844 4.15091 14.0055 4.15091 14.0055 4.15091H13.9945C13.9945 4.15091 8.11562 4.15091 4.2 4.43528C3.65313 4.50091 2.46094 4.50638 1.39453 5.622C0.552344 6.46966 0.284375 8.40013 0.284375 8.40013C0.284375 8.40013 0 10.6697 0 12.9337V15.0556C0 17.3197 0.278906 19.5892 0.278906 19.5892C0.278906 19.5892 0.552344 21.5197 1.38906 22.3673C2.45547 23.4829 3.85547 23.4447 4.47891 23.565C6.72109 23.7783 14 23.8439 14 23.8439C14 23.8439 19.8844 23.8329 23.8 23.554C24.3469 23.4884 25.5391 23.4829 26.6055 22.3673C27.4477 21.5197 27.7211 19.5892 27.7211 19.5892C27.7211 19.5892 28 17.3251 28 15.0556V12.9337C28 10.6697 27.7211 8.40013 27.7211 8.40013ZM11.107 17.6314V9.76185L18.6703 13.7103L11.107 17.6314Z" fill="white"/>
</g>
<defs>
<clipPath id="clip0_43_1184">
<rect width="28" height="28" fill="white"/>
</clipPath>
</defs>
</svg>
